<svg data-v-423bf9ae="" xmlns="http://www.w3.org/2000/svg" viewBox="0 0 327.1209048520423 60" class="font"><!----><!----><!----><g data-v-423bf9ae="" id="c0279fc0-61e3-4cd4-8451-d7968c4d3557" fill="black" transform="matrix(5.758157347474804,0,0,5.758157347474804,-0.7485624190510691,-19.347408979475134)"><path d="M1.92 13.44C2.84 13.44 3.30 13.52 3.46 13.52C3.64 13.52 3.77 13.40 3.77 13.22C3.77 12.94 3.58 12.89 3.46 12.88C2.87 12.81 2.58 12.82 2.58 12.43C2.58 12.15 3.11 10.68 3.79 9.41C3.88 9.25 3.96 9.24 4.12 9.24L7.41 9.24C7.53 9.24 7.60 9.25 7.66 9.38C8.20 10.63 8.71 12.29 8.71 12.54C8.71 12.78 8.50 12.80 8.43 12.81C7.76 12.89 7.60 12.85 7.60 13.29C7.60 13.43 7.69 13.52 7.88 13.52C8.05 13.52 8.54 13.44 9.55 13.44C10.40 13.44 11.10 13.52 11.16 13.52C11.34 13.52 11.44 13.40 11.44 13.22C11.44 13.19 11.42 13.09 11.41 13.03C11.33 12.70 10.71 13.01 10.36 12.49C10.28 12.36 10.33 12.45 8.81 8.74L6.79 4.09C6.73 3.95 6.57 3.56 6.20 3.56C6.08 3.56 5.96 3.60 5.87 3.67C5.70 3.81 5.80 3.67 3.70 7.66C2.94 9.14 2.23 10.64 1.55 12.14C1.34 12.61 1.20 12.75 0.76 12.81C0.34 12.87 0.13 12.85 0.13 13.23C0.13 13.34 0.18 13.52 0.41 13.52C0.45 13.52 1.09 13.44 1.92 13.44ZM7.13 8.51L4.26 8.51C4.20 8.51 4.17 8.48 4.17 8.46C4.17 8.37 4.73 7.29 5.60 5.67C5.66 5.57 5.74 5.43 5.87 5.43C5.94 5.43 5.98 5.46 6.02 5.53C6.23 5.87 7.25 8.27 7.25 8.41C7.25 8.50 7.20 8.51 7.13 8.51ZM15.41 13.52C15.64 13.52 15.69 13.34 15.69 13.13C15.69 12.87 15.48 12.84 15.39 12.82C14.48 12.75 14.27 12.81 14.27 12.26L14.27 9.31C14.27 9.20 14.28 9.03 14.46 9.03L14.48 9.03C14.64 9.03 14.63 9.09 18.13 13.10C18.48 13.51 18.47 13.44 19.50 13.45C19.89 13.45 19.96 13.51 20.16 13.51C20.45 13.51 20.57 13.31 20.57 13.19C20.57 13.12 20.52 13.03 20.48 12.98C20.26 12.75 19.99 12.91 19.53 12.61C19.32 12.47 19.49 12.61 15.58 8.50C15.51 8.43 15.47 8.37 15.47 8.29C15.47 8.16 15.47 8.20 17.98 5.50C18.28 5.18 18.55 4.80 18.98 4.62C19.49 4.41 20.23 4.51 20.23 4.12C20.23 3.99 20.15 3.82 19.84 3.82C19.70 3.82 19.28 3.85 18.44 3.85L18.35 3.85C17.47 3.85 17.04 3.82 16.88 3.82C16.69 3.82 16.56 3.93 16.56 4.12C16.56 4.62 17.49 4.20 17.49 4.80C17.49 4.91 17.43 5.03 17.37 5.10C17.30 5.21 15.68 7.01 14.83 7.97C14.70 8.11 14.60 8.26 14.46 8.26C14.31 8.26 14.28 8.12 14.28 8.02L14.28 5.04L14.28 4.98C14.28 4.84 14.29 4.62 14.49 4.52C14.80 4.38 15.57 4.59 15.57 4.17C15.57 4.06 15.48 3.81 15.16 3.81C15.01 3.81 14.55 3.86 13.62 3.86L13.61 3.86C12.68 3.86 12.22 3.81 12.07 3.81C11.76 3.81 11.66 4.02 11.66 4.14C11.66 4.40 11.87 4.47 12.05 4.48C12.80 4.55 13.05 4.51 13.05 5.18L13.05 12.14C13.05 12.38 13.03 12.46 13.01 12.53C12.77 13.09 11.69 12.54 11.69 13.20C11.69 13.36 11.73 13.52 11.93 13.52C11.98 13.52 12.74 13.44 13.66 13.44C14.60 13.44 15.36 13.52 15.41 13.52ZM21.10 6.22C21.10 7.13 21.62 8.04 22.76 8.48C23.70 8.86 24.60 8.82 25.41 9.41C25.91 9.77 26.22 10.33 26.22 10.95C26.22 12.04 25.30 12.89 24.19 12.89C23.37 12.89 22.74 12.45 22.39 11.97C21.97 11.41 22.12 11.76 22.02 10.78C21.94 10.09 21.92 9.97 21.63 9.97C21.39 9.97 21.34 10.11 21.32 10.26C21.20 11.86 21 12.38 21 12.54C21 12.63 21.06 12.75 21.25 12.75C21.38 12.75 21.48 12.71 21.62 12.71C21.81 12.71 21.91 12.78 22.05 12.91C22.58 13.37 23.37 13.68 24.18 13.68C25.90 13.68 27.24 12.33 27.24 10.67C27.24 9.39 26.49 8.48 25.48 8.05C24.58 7.67 23.58 7.69 22.82 7.14C22.39 6.83 22.11 6.38 22.11 5.87C22.11 5.14 22.68 4.55 23.46 4.55C24.08 4.55 24.63 4.91 25.00 5.33C25.68 6.10 25.52 6.61 25.97 6.62L25.98 6.62C26.12 6.62 26.22 6.55 26.22 6.41C26.22 6.30 26.17 5.96 26.17 5.28C26.17 4.58 26.22 4.23 26.22 4.12C26.22 3.96 26.12 3.85 26.00 3.85C25.66 3.85 25.62 4.41 25.41 4.41C25.23 4.41 24.74 3.85 23.60 3.85C22.13 3.85 21.10 4.97 21.10 6.22ZM29.75 13.44C30.66 13.44 31.40 13.52 31.44 13.52C31.63 13.52 31.67 13.37 31.67 13.13C31.67 12.81 31.19 12.85 30.98 12.82C30.31 12.75 30.31 12.56 30.31 12.36L30.31 8.57C30.31 8.43 30.34 8.33 30.52 8.33L35.29 8.33C35.42 8.33 35.48 8.36 35.48 8.48L35.48 12.28C35.48 12.59 35.45 12.80 35.06 12.81C34.20 12.88 34.06 12.81 34.06 13.24C34.06 13.38 34.10 13.52 34.29 13.52C34.34 13.52 35.07 13.44 35.98 13.44C36.89 13.44 37.63 13.52 37.69 13.52C37.91 13.52 37.97 13.33 37.97 13.16C37.97 12.80 37.63 12.85 37.10 12.81C36.74 12.78 36.71 12.53 36.71 12.36L36.71 12.29L36.71 4.94C36.71 4.76 36.74 4.58 37.09 4.54C37.74 4.44 38.05 4.48 38.05 4.07C38.05 3.91 37.95 3.79 37.79 3.79C37.73 3.79 36.95 3.85 35.95 3.85C35.08 3.85 34.65 3.82 34.51 3.82C34.29 3.82 34.17 3.95 34.17 4.16C34.17 4.61 34.80 4.38 35.17 4.54C35.45 4.63 35.46 4.90 35.46 5.14L35.46 7.21C35.46 7.32 35.45 7.46 35.22 7.46L30.49 7.46C30.34 7.46 30.31 7.38 30.31 7.27L30.31 4.96C30.31 4.70 30.35 4.55 30.63 4.54C31.49 4.48 31.70 4.52 31.70 4.24C31.70 4.20 31.68 4.16 31.68 4.12C31.65 3.95 31.63 3.82 31.42 3.82C31.25 3.82 30.74 3.85 29.74 3.85L29.69 3.85C28.71 3.85 28.22 3.82 28.06 3.82C27.79 3.82 27.73 4.10 27.73 4.20C27.73 4.51 28.10 4.45 28.35 4.49C28.77 4.55 29.06 4.52 29.06 4.97L29.06 12.38C29.06 12.61 29.04 12.80 28.70 12.82C27.93 12.88 27.75 12.84 27.75 13.15C27.75 13.36 27.80 13.52 28.03 13.52C28.08 13.52 28.81 13.44 29.75 13.44ZM48.85 8.72C48.85 5.87 46.63 3.36 43.62 3.36C40.81 3.36 38.46 5.66 38.46 8.50C38.47 9.91 39.07 11.30 40.08 12.26C41.08 13.22 42.45 13.78 43.82 13.78C46.55 13.78 48.85 11.66 48.85 8.72ZM39.79 8.06C39.79 5.29 41.66 4.10 43.40 4.10C44.32 4.10 45.23 4.44 45.92 5.04C47.05 6.03 47.46 7.63 47.46 8.97C47.46 11.91 45.36 12.96 43.76 12.96C41.12 12.96 39.79 10.49 39.79 8.06ZM55.76 6.47C55.76 7.83 54.36 8.74 52.30 8.74C51.83 8.74 51.79 8.72 51.79 8.57L51.79 4.58C51.79 4.41 51.87 4.37 52.64 4.37C54.63 4.37 55.76 5.31 55.76 6.47ZM50.06 3.88L49.71 3.88C49.50 3.88 49.41 3.98 49.41 4.19C49.41 4.54 49.60 4.55 49.74 4.55L50.25 4.55C50.54 4.55 50.55 4.75 50.55 4.91L50.55 12.40C50.55 12.63 50.48 12.74 50.16 12.78C49.43 12.85 49.29 12.80 49.29 13.19C49.29 13.34 49.35 13.52 49.57 13.52C49.64 13.52 50.47 13.44 51.52 13.44C52.54 13.44 53.38 13.52 53.45 13.52C53.68 13.52 53.72 13.36 53.72 13.19L53.72 13.17C53.72 12.75 53.54 12.84 52.21 12.78C51.84 12.75 51.76 12.60 51.76 12.29L51.76 9.45C51.76 9.31 51.80 9.23 51.94 9.23L52.36 9.23C54.10 9.23 54.98 8.95 55.51 8.65C56.28 8.25 56.92 7.46 56.94 6.41L56.94 6.40C56.94 5.71 56.63 5.04 56.13 4.58C55.45 3.98 54.56 3.74 53.40 3.74C52.39 3.74 51.39 3.88 50.06 3.88Z"></path></g><!----><!----></svg>